<?xml version="1.0" encoding="UTF-8" standalone="no"?>
<svg width="52px" height="52px" viewBox="0 0 52 52" version="1.1" xmlns="http://www.w3.org/2000/svg" xmlns:xlink="http://www.w3.org/1999/xlink" xmlns:sketch="http://www.bohemiancoding.com/sketch/ns">
    <!-- Generator: Sketch 3.3.3 (12072) - http://www.bohemiancoding.com/sketch -->
    <title>facebook</title>
    <desc>Created with Sketch.</desc>
    <defs></defs>
    <g id="Page-1" stroke="none" stroke-width="1" fill="none" fill-rule="evenodd" sketch:type="MSPage">
        <g id="facebook" sketch:type="MSLayerGroup" transform="translate(2.000000, 2.000000)" stroke="#96BE4F" stroke-width="2">
            <path d="M9.6,0 C4.30839245,0 0,4.30839245 0,9.6 L0,38.4 C0,43.6916074 4.30839245,48 9.6,48 L38.4,48 C43.6916074,48 48,43.6916074 48,38.4 L48,9.6 C48,4.30839245 43.6916074,0 38.4,0 L9.6,0 L9.6,0 Z" id="Shape" sketch:type="MSShapeGroup"></path>
            <path d="M33,12 C35.17273,12 37.176842,12.514578 38,12.75 L38,16 L36,16 C34.849178,16 33.932815,16.08933 33.15625,16.59375 C32.379685,17.098165 32,18.061492 32,19 L32,22 L32,23 L33,23 L37.8125,23 L37.125,27 L33,27 L32,27 L32,28 L32,48 L27,48 L27,28 L27,27 L26,27 L24,27 L24,23 L26,23 L27,23 L27,22 L27,19 C27,16.774179 27.379844,14.991959 28.25,13.84375 C29.120156,12.695541 30.494904,12 33,12 L33,12 Z" id="Path" sketch:type="MSShapeGroup"></path>
        </g>
    </g>
</svg>